<?xml version="1.0" standalone="no"?><!DOCTYPE svg PUBLIC "-//W3C//DTD SVG 1.1//EN" "http://www.w3.org/Graphics/SVG/1.1/DTD/svg11.dtd"><svg t="1582758344882" class="icon" viewBox="0 0 1024 1024" version="1.1" xmlns="http://www.w3.org/2000/svg" p-id="1474" xmlns:xlink="http://www.w3.org/1999/xlink" width="200" height="200"><defs><style type="text/css"></style></defs><path d="M454.827 947.37c-23.04 0-46.251-8.703-63.83-26.282L125.44 655.36c-17.067-17.067-26.453-39.765-26.453-63.83s9.386-46.762 26.453-63.829l378.539-378.368c16.896-16.896 40.618-26.112 64.341-25.088l271.36 11.435c38.23 1.536 69.461 32.768 70.997 70.997l11.435 271.36c1.024 23.894-8.192 47.446-25.088 64.342L518.656 920.917a90.231 90.231 0 0 1-63.83 26.454z m-15.531-74.751c8.533 8.533 22.528 8.533 31.061 0L848.896 494.08c3.413-3.413 5.29-8.363 5.12-13.141l-11.435-271.36c-0.17-3.072-2.56-5.632-5.632-5.632l-271.36-11.435c-4.949 0.17-9.728 1.707-13.141 5.12l-378.71 378.539c-4.095 4.096-6.314 9.557-6.314 15.53s2.219 11.435 6.485 15.531l265.387 265.387z" p-id="1475"></path><path d="M662.699 496.47c-28.843 0-57.686-10.923-79.702-32.94-44.032-44.031-44.032-115.54 0-159.402 44.032-43.861 115.542-43.861 159.403 0 43.861 44.032 43.861 115.541 0 159.403a112.265 112.265 0 0 1-79.701 32.938z m55.466-57.003zM662.7 339.285c-11.435 0-22.699 4.267-31.403 12.971a44.288 44.288 0 0 0 0 62.805 44.493 44.493 0 0 0 62.976 0 44.817 44.817 0 0 0 0-62.976c-8.875-8.362-20.31-12.8-31.573-12.8z" p-id="1476"></path></svg>
