<?xml version="1.0" standalone="no"?><!DOCTYPE svg PUBLIC "-//W3C//DTD SVG 1.1//EN" "http://www.w3.org/Graphics/SVG/1.1/DTD/svg11.dtd"><svg t="1582758341049" class="icon" viewBox="0 0 1210 1024" version="1.1" xmlns="http://www.w3.org/2000/svg" p-id="1339" xmlns:xlink="http://www.w3.org/1999/xlink" width="236.328125" height="200"><defs><style type="text/css"></style></defs><path d="M753.009146 388.728353c2.067704-4.743556 3.040741-9.973631 3.040741-15.811854 0-7.176149-2.554223-13.379261-7.784297-18.366077s-11.919705-7.541038-20.068892-7.541038c-5.838223 0-10.703409 1.094667-14.960447 3.40563-4.135408 2.310963-7.662668 5.230075-10.46015 8.757335-2.797482 3.52726-5.716593 7.784297-8.635705 12.771113s-5.716593 9.852001-8.392446 14.473928l-71.274973 117.615869L534.805559 379.24124c-6.93289-11.311557-13.014372-19.582373-18.122817-24.690818-5.230075-5.108445-11.919705-7.662668-20.312151-7.662668-8.270816 0-14.960447 2.554223-20.068892 7.784297-5.230075 5.230075-7.784297 12.041335-7.784297 20.55541 0 4.743556 0.851408 9.122224 2.675852 13.014372s5.716593 10.581779 11.554816 19.704003l73.829196 115.669795L525.075187 523.615631c-23.352892 0-35.029338 7.541038-35.029338 22.623114 0 15.446965 11.676446 23.231263 35.029338 23.231263l55.584749 0 0 35.515857L525.075187 604.985865c-23.352892 0-35.029338 7.784297-35.029338 23.109633 0 15.203706 11.676446 22.744744 35.029338 22.744744l55.584749 0 0 19.704003c0 33.326523 11.311557 49.989785 33.813042 49.989785 22.258225 0 33.326523-16.663262 33.326523-49.989785l0-19.704003 55.828008 0c23.231263 0 34.786079-7.541038 34.786079-22.744744 0-15.446965-11.554816-23.109633-34.786079-23.109633l-55.828008 0 0-35.515857 55.828008 0c23.231263 0 34.786079-7.784297 34.786079-23.231263 0-15.082076-11.554816-22.623114-34.786079-22.623114L672.24706 523.615631l71.031714-117.12935C747.657442 399.553391 750.941442 393.593538 753.009146 388.728353L753.009146 388.728353z" p-id="1340"></path><path d="M607.418458 75.167122C366.105238 75.167122 170.524765 270.747595 170.524765 512.060815c0 38.799857 5.108445 76.383418 14.595558 112.142535 0 0 9.608742 37.94845 41.23245 25.177337C251.286851 639.285426 240.461813 607.175199 240.461813 607.175199c-7.905927-30.407412-12.041335-62.274379-12.041335-95.236014 0-209.324623 169.673358-378.997981 378.997981-378.997981s378.997981 169.673358 378.997981 378.997981S816.864711 891.058796 607.418458 891.058796c-67.747714 0-131.238389-17.757928-186.21499-48.895118 0 0-43.300154-35.637487-63.490676-15.933484-25.542226 24.934078 9.122224 50.354674 9.122224 50.354674 68.96401 45.611118 151.67217 72.126381 240.583442 72.126381 241.31322 0 436.893693-195.580473 436.893693-436.893693S848.731678 75.167122 607.418458 75.167122z" p-id="1341"></path></svg>